<svg width="512" height="512" viewBox="0 0 512 512" fill="none" xmlns="http://www.w3.org/2000/svg">
  <defs>
    <linearGradient id="bg" x1="72" y1="48" x2="420" y2="448" gradientUnits="userSpaceOnUse">
      <stop stop-color="#101724"/>
      <stop offset="1" stop-color="#0A0F18"/>
    </linearGradient>
    <radialGradient id="glow" cx="0" cy="0" r="1" gradientUnits="userSpaceOnUse" gradientTransform="translate(260 270) rotate(90) scale(180 180)">
      <stop stop-color="#365DA6" stop-opacity="0.4"/>
      <stop offset="1" stop-color="#365DA6" stop-opacity="0"/>
    </radialGradient>
  </defs>

  <rect x="52" y="52" width="408" height="408" rx="92" fill="url(#bg)"/>
  <rect x="52" y="52" width="408" height="408" rx="92" stroke="#36506F" stroke-width="6"/>
  <circle cx="260" cy="270" r="180" fill="url(#glow)"/>

  <ellipse cx="258" cy="248" rx="150" ry="112" stroke="#F39F5A" stroke-width="12"/>
  <circle cx="396" cy="168" r="20" fill="#7FD9BE"/>
  <circle cx="396" cy="168" r="8" fill="#EFF6FB"/>

  <rect x="138" y="162" width="236" height="172" rx="34" fill="#111722" stroke="#79B7FF" stroke-width="8"/>
  <line x1="170" y1="194" x2="278" y2="194" stroke="#36506F" stroke-width="8" stroke-linecap="round"/>
  <circle cx="164" cy="194" r="6" fill="#F39F5A"/>
  <circle cx="186" cy="194" r="6" fill="#7FD9BE"/>
  <circle cx="208" cy="194" r="6" fill="#79B7FF"/>

  <path d="M193 234L235 265L193 296" stroke="#79B7FF" stroke-width="16" stroke-linecap="round" stroke-linejoin="round"/>
  <line x1="264" y1="296" x2="330" y2="296" stroke="#EFF6FB" stroke-width="16" stroke-linecap="round"/>

  <path d="M120 426H212" stroke="#EFF6FB" stroke-width="18" stroke-linecap="round"/>
  <path d="M226 426H308" stroke="#7FD9BE" stroke-width="18" stroke-linecap="round"/>
  <path d="M320 426H394" stroke="#F39F5A" stroke-width="18" stroke-linecap="round"/>
</svg>
